<?xml version="1.0" encoding="UTF-8"?>
<svg version="1.1" xmlns="http://www.w3.org/2000/svg" width="200" height="200">
<path d="M0 0 C66 0 132 0 200 0 C200 66 200 132 200 200 C134 200 68 200 0 200 C0 134 0 68 0 0 Z " fill="#EA4234" transform="translate(0,0)"/>
<path d="M0 0 C66 0 132 0 200 0 C200 66 200 132 200 200 C134 200 68 200 0 200 C0 134 0 68 0 0 Z M18.66796875 35.6328125 C14.36507008 41.36174387 12.70686331 46.22114849 12.5859375 53.42578125 C12.56634476 54.17744568 12.54675201 54.92911011 12.52656555 55.70355225 C12.46478751 58.23975718 12.41874977 60.77592316 12.375 63.3125 C12.35764801 64.19428925 12.34029602 65.07607849 12.32241821 65.98458862 C12.17972203 73.32268072 12.08685056 80.66106558 12 88 C11.98326233 89.30477295 11.96652466 90.6095459 11.94927979 91.95385742 C11.83990476 100.54876535 11.76194786 109.1433858 11.71490479 117.73886108 C11.69862755 120.61288684 11.67338647 123.4866209 11.64056396 126.36050415 C11.59492219 130.43965405 11.58314463 134.51825992 11.57421875 138.59765625 C11.55676102 139.81797546 11.53930328 141.03829468 11.52131653 142.29559326 C11.5475095 152.73993696 14.14786202 159.72750067 21.28515625 167.34765625 C29.01857301 174.79921728 39.13254199 175.44347792 49.33764648 175.38818359 C50.54209412 175.39344055 51.74654175 175.39869751 52.98748779 175.40411377 C56.26657192 175.41499798 59.54528824 175.41252699 62.82436633 175.40297651 C66.27232755 175.39532999 69.72026587 175.40243944 73.16822815 175.40713501 C78.95732979 175.41257887 84.74631627 175.40543788 90.53540039 175.39111328 C97.20594442 175.37479705 103.87621315 175.3800732 110.54675049 175.3965925 C116.29653366 175.41025586 122.04623449 175.41210323 127.79602867 175.40427649 C131.22016374 175.39962549 134.64416991 175.39890332 138.06829643 175.40888596 C141.89003741 175.41653995 145.71125666 175.40483965 149.53295898 175.38818359 C150.65170914 175.39425629 151.77045929 175.40032898 152.92311096 175.40658569 C163.16032014 175.32430483 172.33036984 173.59771096 179.84765625 166.17578125 C185.10660815 160.50647992 187.21875088 155.71062604 187.31884766 147.86328125 C187.33869217 146.66376328 187.35853668 145.4642453 187.37898254 144.2283783 C187.39055893 142.93613846 187.40213531 141.64389862 187.4140625 140.3125 C187.43306479 138.94376019 187.45287267 137.57503136 187.47343445 136.20631409 C187.52558961 132.55702432 187.56550979 128.90770575 187.60190201 125.2582283 C187.63270985 122.24622912 187.66868022 119.23429959 187.70444202 116.22235584 C187.78367378 109.52574917 187.85336755 102.82910032 187.91650391 96.13232422 C187.9726628 90.21093783 188.05298754 84.29033428 188.15368652 78.36953735 C188.21042904 74.87625976 188.25077058 71.38296754 188.28509521 67.8894043 C188.30309974 66.36066364 188.32767797 64.83198358 188.35943604 63.3034668 C188.55955815 53.28441345 187.46157701 44.99119099 182.375 36.1875 C173.16781517 27.70719818 163.87897042 25.69997443 151.7434082 25.70947266 C150.51174423 25.70275543 149.28008026 25.69603821 148.01109314 25.68911743 C144.64297299 25.67340217 141.27509951 25.66676391 137.90695977 25.66548586 C135.79788368 25.66406054 133.68883314 25.65978366 131.57976341 25.65449142 C124.2078628 25.63600324 116.83603435 25.62781888 109.46411133 25.62939453 C102.61581615 25.63059412 95.76783704 25.60952475 88.91962177 25.5779072 C83.02212282 25.55165922 77.12472652 25.54103086 71.22716969 25.54230535 C67.71290568 25.54281269 64.19892249 25.53725778 60.68471718 25.51594925 C56.75754366 25.49278603 52.8307949 25.5021397 48.90356445 25.51416016 C47.75564423 25.50292114 46.607724 25.49168213 45.42501831 25.48010254 C35.43659549 25.55744041 25.27692139 27.53151571 18.66796875 35.6328125 Z " fill="#FDFEFD" transform="translate(0,0)"/>
<path d="M0 0 C8.78571429 1.0625 8.78571429 1.0625 12 2 C12 2.66 12 3.32 12 4 C13.155 4.144375 14.31 4.28875 15.5 4.4375 C21.75 5.21875 21.75 5.21875 28 6 C28 6.66 28 7.32 28 8 C29.0725 7.95875 30.145 7.9175 31.25 7.875 C39.64190022 7.875 47.93323101 9.82817758 56 12 C56 12.66 56 13.32 56 14 C58.31 14 60.62 14 63 14 C63 14.66 63 15.32 63 16 C64.134375 15.938125 65.26875 15.87625 66.4375 15.8125 C70.60888715 15.79778611 73.86881418 16.83430108 77.75 18.26953125 C81.12911077 19.36656895 84.47521793 19.62234478 88 20 C88.33 20.33 88.66 20.66 89 21 C90.65405015 21.35573382 92.31957403 21.65849342 93.98828125 21.9375 C95.00470703 22.11023438 96.02113281 22.28296875 97.06835938 22.4609375 C98.13892578 22.63882813 99.20949219 22.81671875 100.3125 23 C102.41298197 23.35285029 104.51325161 23.7069675 106.61328125 24.0625 C107.54954346 24.21847656 108.48580566 24.37445313 109.45043945 24.53515625 C112 25 112 25 114.03881836 25.55249023 C116.33403386 26.0762211 118.41224369 26.11274203 120.765625 26.09765625 C122.09980469 26.09282227 122.09980469 26.09282227 123.4609375 26.08789062 C124.84152344 26.07532227 124.84152344 26.07532227 126.25 26.0625 C127.18585938 26.05798828 128.12171875 26.05347656 129.0859375 26.04882812 C131.39069041 26.03706918 133.69531227 26.02063426 136 26 C136 25.34 136 24.68 136 24 C136.65226563 23.82984375 137.30453125 23.6596875 137.9765625 23.484375 C143.33844741 21.99759865 147.67455562 20.54908257 152 17 C152.33 16.01 152.66 15.02 153 14 C153.99 14 154.98 14 156 14 C156 13.34 156 12.68 156 12 C157.0725 11.54625 158.145 11.0925 159.25 10.625 C160.50046036 10.08439694 161.75049068 9.5427976 163 9 C164.1446875 8.505 164.1446875 8.505 165.3125 8 C167.33562603 6.96566415 167.33562603 6.96566415 169 4 C169.66 4 170.32 4 171 4 C171 3.34 171 2.68 171 2 C171.99 2 172.98 2 174 2 C174.33 1.34 174.66 0.68 175 0 C175.09302052 8.44983827 175.16392618 16.89945963 175.20724869 25.34968472 C175.22805011 29.27424246 175.25622951 33.19844777 175.30175781 37.12280273 C175.34548418 40.9159341 175.36919299 44.70872824 175.37950897 48.50209236 C175.38685268 49.9432817 175.40119244 51.38445432 175.42292023 52.82549858 C175.55793831 62.15846587 174.89816396 69.48945679 169.39453125 77.26953125 C162.39650434 84.09476738 154.4661927 87.10840409 144.71380615 87.14044189 C143.14535194 87.14900711 143.14535194 87.14900711 141.54521179 87.15774536 C140.40848526 87.15886322 139.27175873 87.15998108 138.10058594 87.16113281 C136.29238121 87.16858017 136.29238121 87.16858017 134.44764709 87.17617798 C131.14784115 87.18826273 127.84809837 87.19573856 124.54827785 87.20018864 C122.4832857 87.20312655 120.41829902 87.20723271 118.35330963 87.21169281 C111.88253836 87.22535687 105.41177967 87.23502866 98.94099498 87.2388947 C91.48984845 87.24337185 84.03888569 87.26090824 76.58779502 87.2898953 C70.81604764 87.31156409 65.04435177 87.32160176 59.27256417 87.32293582 C55.83104894 87.32398021 52.3897067 87.32980928 48.94823456 87.34775543 C45.10434634 87.36485151 41.26090323 87.36292657 37.41699219 87.35644531 C36.28836258 87.3656601 35.15973297 87.37487488 33.99690247 87.3843689 C24.5317864 87.33449482 16.00211276 85.64481899 8.8671875 79.01953125 C7.88105469 77.92705078 7.88105469 77.92705078 6.875 76.8125 C6.21242188 76.09707031 5.54984375 75.38164062 4.8671875 74.64453125 C-0.77415229 66.65460021 -0.40270388 58.65519384 -0.29296875 49.21875 C-0.28736409 47.79529266 -0.28309811 46.37182948 -0.28010559 44.94836426 C-0.2687251 41.22631473 -0.23931791 37.50462395 -0.20599365 33.78271484 C-0.17514493 29.97498424 -0.16156883 26.16719491 -0.14648438 22.359375 C-0.11444045 14.90608756 -0.06332813 7.45309431 0 0 Z " fill="#3E83F2" transform="translate(12,88)"/>
<path d="M0 0 C1.23341629 -0.00671722 2.46683258 -0.01343445 3.73762512 -0.02035522 C7.10561896 -0.03605292 10.47336612 -0.04270759 13.8413794 -0.0439868 C15.95028556 -0.04541302 18.05916623 -0.04969152 20.16806602 -0.05498123 C27.5388184 -0.07345837 34.90949867 -0.08165479 42.28027344 -0.08007812 C49.12917719 -0.07887747 55.97776544 -0.09997054 62.82658941 -0.13156545 C68.72494214 -0.15779696 74.62319226 -0.16844255 80.52160281 -0.16716731 C84.03637889 -0.16665967 87.55087432 -0.17223194 91.06559181 -0.19352341 C94.99046552 -0.21665269 98.9149132 -0.20734291 102.83984375 -0.1953125 C103.98978821 -0.20655151 105.13973267 -0.21779053 106.32452393 -0.22937012 C115.734249 -0.15632285 124.28276139 2.12561066 131.61401367 8.29052734 C138.75809325 17.11758721 139.92619645 24.6626456 139.73901367 35.72802734 C139.72999023 36.74574219 139.7209668 37.76345703 139.71166992 38.81201172 C139.68826065 41.3050989 139.65547067 43.79768594 139.61401367 46.29052734 C137.61401367 44.29052734 137.61401367 44.29052734 136.42651367 40.60302734 C133.89222729 33.62106836 128.68727816 29.37338006 122.10886955 26.1558342 C117.12438061 24.42703195 111.95145711 24.7554446 106.73144531 24.8046875 C105.45726242 24.80089081 104.18307953 24.79709412 102.87028503 24.79318237 C99.39486491 24.78354011 95.91996351 24.79872851 92.44460607 24.81908846 C88.79465599 24.83674829 85.14471982 24.83313261 81.49473572 24.83236694 C75.36586918 24.83423632 69.23720144 24.85154888 63.10839844 24.87890625 C56.04084045 24.91033911 48.97350003 24.92090266 41.90587717 24.91943514 C34.35688068 24.9180798 26.80796712 24.93198785 19.25899577 24.95032835 C17.09496856 24.95457356 14.93095489 24.95600833 12.7669239 24.95680618 C8.71983896 24.95920501 4.67300612 24.97869421 0.62597656 25 C-0.56339508 24.99909363 -1.75276672 24.99818726 -2.97817993 24.99725342 C-12.85357669 25.07304146 -20.00592413 25.45046969 -27.38598633 32.29052734 C-28.04598633 32.29052734 -28.70598633 32.29052734 -29.38598633 32.29052734 C-31.25150059 35.87805476 -32.8113456 39.56864927 -34.38598633 43.29052734 C-34.71598633 43.29052734 -35.04598633 43.29052734 -35.38598633 43.29052734 C-35.50326758 39.62413487 -35.57359524 35.95823214 -35.63598633 32.29052734 C-35.68625977 30.74558594 -35.68625977 30.74558594 -35.73754883 29.16943359 C-35.82225569 22.51994455 -35.03618246 17.88869773 -31.38598633 12.29052734 C-30.80848633 11.40365234 -30.23098633 10.51677734 -29.63598633 9.60302734 C-21.1380529 0.86904021 -11.62000538 -0.00911063 0 0 Z " fill="#37A750" transform="translate(48.385986328125,25.70947265625)"/>
<path d="M0 0 C1.91390282 -0.01007584 1.91390282 -0.01007584 3.86647034 -0.02035522 C7.34158985 -0.03790196 10.81661068 -0.04270555 14.29177022 -0.0439868 C16.46734008 -0.04541452 18.64288531 -0.04969562 20.81844902 -0.05498123 C28.42032321 -0.07343847 36.02212758 -0.08165658 43.62402344 -0.08007812 C50.69226658 -0.07887536 57.76020507 -0.10001501 64.82837111 -0.13156545 C70.91526594 -0.15776063 77.00206136 -0.16844419 83.08901209 -0.16716731 C86.71659152 -0.16665896 90.34389931 -0.17227202 93.9714222 -0.19352341 C98.01631517 -0.21657805 102.06052799 -0.20736524 106.10546875 -0.1953125 C107.29686462 -0.20655151 108.4882605 -0.21779053 109.71575928 -0.22937012 C118.51441711 -0.16279264 124.78942225 1.54819755 131.23803711 7.91552734 C138.89542604 16.14571308 139.46905631 24.40420014 139.12866211 35.14208984 C139.08225586 36.18107422 139.03584961 37.22005859 138.98803711 38.29052734 C136.59350586 37.95849609 136.59350586 37.95849609 133.98803711 37.29052734 C133.09360451 35.86606062 132.2040425 34.43794979 131.35522461 32.98583984 C127.92119219 28.72763965 122.09866614 25.99407035 116.98803711 24.29052734 C115.19210619 24.18966 113.39268025 24.14690721 111.59394836 24.1366272 C109.91385933 24.1237265 109.91385933 24.1237265 108.1998291 24.11056519 C106.35536194 24.10417526 106.35536194 24.10417526 104.47363281 24.09765625 C103.17906662 24.08947876 101.88450043 24.08130127 100.55070496 24.07287598 C96.25509721 24.04668034 91.95947984 24.03134905 87.66381836 24.01708984 C86.18338706 24.01172882 84.70295582 24.00635131 83.22252464 24.00095749 C77.062308 23.9793308 70.90209394 23.96059583 64.74184895 23.9493351 C55.92306775 23.93310706 47.10472791 23.89995528 38.28611308 23.84293425 C32.08045875 23.80418162 25.87492219 23.78469605 19.66915005 23.77941453 C15.96537772 23.7757678 12.26207639 23.76382013 8.55843544 23.7313118 C4.42182994 23.69552371 0.28616783 23.69961545 -3.85058594 23.70703125 C-5.07010956 23.69062592 -6.28963318 23.67422058 -7.54611206 23.65731812 C-14.80131994 23.71053141 -19.34938735 24.69163618 -25.01196289 29.29052734 C-25.94008789 29.95052734 -26.86821289 30.61052734 -27.82446289 31.29052734 C-30.15355862 33.22446137 -30.15355862 33.22446137 -31.63696289 36.04052734 C-32.31758789 37.15427734 -32.31758789 37.15427734 -33.01196289 38.29052734 C-34.00196289 38.29052734 -34.99196289 38.29052734 -36.01196289 38.29052734 C-36.12087 35.28953146 -36.19969844 32.29256357 -36.26196289 29.29052734 C-36.29547852 28.45134766 -36.32899414 27.61216797 -36.36352539 26.74755859 C-36.47967811 19.25570819 -34.54513726 14.14846766 -29.57446289 8.54052734 C-28.30602539 7.42677734 -28.30602539 7.42677734 -27.01196289 6.29052734 C-26.26946289 5.56865234 -25.52696289 4.84677734 -24.76196289 4.10302734 C-17.51576964 -0.67287275 -8.36352478 -0.0063735 0 0 Z " fill="#F9BB08" transform="translate(49.011962890625,49.70947265625)"/>
<path d="M0 0 C1.67781555 -0.01496269 1.67781555 -0.01496269 3.38952637 -0.03022766 C4.61243378 -0.03089233 5.83534119 -0.03155701 7.0953064 -0.03224182 C8.38680603 -0.04056534 9.67830566 -0.04888885 11.00894165 -0.0574646 C14.55059429 -0.07939985 18.09216057 -0.08820787 21.63387346 -0.09329104 C23.84980189 -0.09693765 26.06570782 -0.10317947 28.28162766 -0.11029243 C36.02193949 -0.13478952 43.76218435 -0.14783809 51.50253296 -0.15138245 C58.70077146 -0.15501161 65.89858197 -0.18486139 73.09668982 -0.22678703 C79.28797306 -0.26157504 85.47911516 -0.2769324 91.67049539 -0.27762848 C95.36311654 -0.27841881 99.05530222 -0.28704286 102.74782181 -0.31562614 C106.87436904 -0.3468536 110.99990977 -0.33770676 115.1265564 -0.32521057 C116.33731842 -0.34004486 117.54808044 -0.35487915 118.79553223 -0.37016296 C126.52222083 -0.30372254 131.92868349 1.17023006 138.49911499 5.27415466 C137.83911499 5.60415466 137.17911499 5.93415466 136.49911499 6.27415466 C134.49911499 5.27415466 132.49911499 4.27415466 130.49911499 3.27415466 C124.60131607 1.84845737 118.55890138 2.13394647 112.53036499 2.14476013 C111.32968384 2.14300781 110.12900269 2.14125549 108.89193726 2.13945007 C105.61098888 2.13581097 102.33008105 2.13665284 99.0491333 2.13982916 C95.60863157 2.1423684 92.16813246 2.14001087 88.72763062 2.13844299 C82.95093299 2.13662587 77.17424817 2.13901564 71.39755249 2.14378357 C64.72764307 2.14922531 58.05776421 2.14746233 51.38785553 2.14195716 C45.6518045 2.13741303 39.91576264 2.13678185 34.17971039 2.13939583 C30.75793456 2.14095145 27.33617309 2.141172 23.91439819 2.13785934 C20.0988661 2.13532001 16.28339271 2.13919161 12.46786499 2.14476013 C11.33937134 2.1427359 10.21087769 2.14071167 9.04818726 2.1386261 C4.08992533 2.15203198 -0.63052862 2.21028223 -5.50088501 3.27415466 C-6.87520958 7.0917229 -6.1806354 10.34670795 -5.50088501 14.27415466 C-7.48088501 15.26415466 -7.48088501 15.26415466 -9.50088501 16.27415466 C-9.50088501 16.93415466 -9.50088501 17.59415466 -9.50088501 18.27415466 C-8.42838501 18.37727966 -7.35588501 18.48040466 -6.25088501 18.58665466 C-0.54801424 19.28412807 4.9548426 20.80492248 10.49911499 22.27415466 C10.49911499 22.60415466 10.49911499 22.93415466 10.49911499 23.27415466 C7.85911499 23.27415466 5.21911499 23.27415466 2.49911499 23.27415466 C2.49911499 22.61415466 2.49911499 21.95415466 2.49911499 21.27415466 C1.34411499 21.31540466 0.18911499 21.35665466 -1.00088501 21.39915466 C-5.44569802 21.415029 -9.23812632 20.49208572 -13.50088501 19.27415466 C-13.50088501 18.61415466 -13.50088501 17.95415466 -13.50088501 17.27415466 C-16.14088501 16.94415466 -18.78088501 16.61415466 -21.50088501 16.27415466 C-20.24160513 11.32193043 -18.69095671 9.0880366 -14.62588501 6.02415466 C-13.76221313 5.35899841 -12.89854126 4.69384216 -12.00869751 4.00852966 C-7.83176586 1.11981058 -5.13009188 0.02455775 0 0 Z " fill="#DE4D22" transform="translate(37.500885009765625,72.72584533691406)"/>
<path d="M0 0 C2.64 0 5.28 0 8 0 C8 0.66 8 1.32 8 2 C8.85476551 1.99861731 8.85476551 1.99861731 9.72679901 1.99720669 C23.61601662 1.97508679 37.50523112 1.95862086 51.39446259 1.94818783 C58.1112888 1.94303965 64.82810323 1.93602519 71.54492188 1.92456055 C78.02881495 1.91368337 84.51269579 1.90771291 90.99659729 1.90512276 C93.46847221 1.90327722 95.94034648 1.89967338 98.41221619 1.89426994 C101.87834106 1.88699546 105.34441558 1.88601177 108.81054688 1.88647461 C110.33832764 1.8810817 110.33832764 1.8810817 111.89697266 1.87557983 C117.36045149 1.88345752 122.59483972 2.1928192 128 3 C128 3.66 128 4.32 128 5 C63.65 4.505 63.65 4.505 -2 4 C-2 3.34 -2 2.68 -2 2 C-1.34 2 -0.68 2 0 2 C0 1.34 0 0.68 0 0 Z " fill="#DFFCEB" transform="translate(40,22)"/>
<path d="M0 0 C0.64858129 0.2115463 1.29716257 0.42309259 1.96539783 0.64104939 C9.2778876 2.85252101 15.92904158 3.44220753 23.53979492 3.43237305 C24.74109039 3.4425647 25.94238586 3.45275635 27.18008423 3.46325684 C30.43765762 3.48807453 33.69495953 3.50007547 36.95261168 3.50611091 C40.37060163 3.51556303 43.78846466 3.54177126 47.20637512 3.56611633 C53.66231414 3.60959859 60.11822828 3.63825723 66.57426864 3.66143972 C73.93116857 3.68859007 81.28793964 3.732495 88.64474714 3.77772844 C103.76309507 3.87031255 118.88147636 3.94211261 134 4 C134 4.33 134 4.66 134 5 C89.12 5 44.24 5 -2 5 C-1.34 4.67 -0.68 4.34 0 4 C0 2.68 0 1.36 0 0 Z " fill="#EBFEFE" transform="translate(26,171)"/>
<path d="M0 0 C0.99 0.33 1.98 0.66 3 1 C2.34 1 1.68 1 1 1 C1.83333333 3.16666667 1.83333333 3.16666667 4 4 C4 24.46 4 44.92 4 66 C2.515 66.495 2.515 66.495 1 67 C-0.10135545 63.69593365 -0.12036063 61.26356307 -0.11352539 57.78442383 C-0.11341209 55.86277153 -0.11341209 55.86277153 -0.11329651 53.90229797 C-0.10818987 52.50387534 -0.10297387 51.1054531 -0.09765625 49.70703125 C-0.09579089 48.27642364 -0.09436754 46.84581539 -0.09336853 45.41520691 C-0.08955267 41.65213249 -0.07973032 37.88909675 -0.06866455 34.1260376 C-0.05843043 30.28520226 -0.05386662 26.44436067 -0.04882812 22.60351562 C-0.03810722 15.0689928 -0.02104196 7.53450182 0 0 Z " fill="#66A5F3" transform="translate(12,88)"/>
<path d="M0 0 C1.22589844 0.29197266 1.22589844 0.29197266 2.4765625 0.58984375 C3.41628906 0.82380859 3.41628906 0.82380859 4.375 1.0625 C4.375 1.7225 4.375 2.3825 4.375 3.0625 C5.53 3.206875 6.685 3.35125 7.875 3.5 C14.125 4.28125 14.125 4.28125 20.375 5.0625 C20.375 5.3925 20.375 5.7225 20.375 6.0625 C16.415 6.0625 12.455 6.0625 8.375 6.0625 C8.375 5.4025 8.375 4.7425 8.375 4.0625 C6.9209375 4.0934375 6.9209375 4.0934375 5.4375 4.125 C2.375 4.0625 2.375 4.0625 1.375 3.0625 C-0.935 2.7325 -3.245 2.4025 -5.625 2.0625 C-5.625 21.5325 -5.625 41.0025 -5.625 61.0625 C-5.955 61.0625 -6.285 61.0625 -6.625 61.0625 C-6.625 40.9325 -6.625 20.8025 -6.625 0.0625 C-3.99249612 -1.25375194 -2.82320944 -0.68563658 0 0 Z " fill="#1B6ACB" transform="translate(19.625,88.9375)"/>
<path d="M0 0 C5.97737668 -0.21637563 10.97466623 0.55325961 16.75 2 C26.88279936 4.36557094 36.64830303 4.39268819 47 4 C47 3.34 47 2.68 47 2 C53.28571429 -0.42857143 53.28571429 -0.42857143 57 1 C55.35 1.33 53.7 1.66 52 2 C51.67 2.99 51.34 3.98 51 5 C27.54545455 9.36363636 27.54545455 9.36363636 21 5 C18.42876629 4.61522796 18.42876629 4.61522796 15.625 4.5 C11.63691454 4.28027077 8.66192871 3.58786152 5 2 C3.34080104 1.63128912 1.6752357 1.28718326 0 1 C0 0.67 0 0.34 0 0 Z " fill="#7173BC" transform="translate(101,110)"/>
<path d="M0 0 C1.65 0 3.3 0 5 0 C4.34 0.66 3.68 1.32 3 2 C4.32 2.66 5.64 3.32 7 4 C7.33 3.34 7.66 2.68 8 2 C9.98 2 11.96 2 14 2 C13.01 2.66 12.02 3.32 11 4 C9.46751287 5.10907268 7.94757618 6.2356015 6.4375 7.375 C5.65246094 7.96023437 4.86742187 8.54546875 4.05859375 9.1484375 C1.99438867 11.005047 1.03780995 12.45315828 0 15 C-0.99 15 -1.98 15 -3 15 C-3.36263859 9.1977825 -2.25684543 5.36000789 0 0 Z " fill="#F9B909" transform="translate(17,72)"/>
<path d="M0 0 C9.58143126 -0.36851659 18.7798237 1.51764484 28 4 C28 4.66 28 5.32 28 6 C30.31 6 32.62 6 35 6 C35 6.66 35 7.32 35 8 C36.175625 7.95875 37.35125 7.9175 38.5625 7.875 C42.72409674 7.86016365 46.06487667 8.68829222 50 10 C50 10.33 50 10.66 50 11 C46.7 11 43.4 11 40 11 C40 10.34 40 9.68 40 9 C37.36 9 34.72 9 32 9 C32 8.34 32 7.68 32 7 C31.0409375 7.0928125 31.0409375 7.0928125 30.0625 7.1875 C27.27049479 7.01656091 25.6856148 6.58825585 23.125 5.625 C17.63236156 3.64876353 12.02466403 3.13897952 6.2578125 2.52734375 C3 2 3 2 0 0 Z " fill="#6F73BD" transform="translate(40,96)"/>
<path d="M0 0 C1.65 0 3.3 0 5 0 C1.53267618 4.22108986 -2.89530044 6.31041634 -8 8 C-9.32 8 -10.64 8 -12 8 C-12 8.66 -12 9.32 -12 10 C-19.85313392 11.46104817 -28.75161008 12.62419496 -36 9 C-28.74 8.67 -21.48 8.34 -14 8 C-14 7.34 -14 6.68 -14 6 C-13.24074219 5.86722656 -12.48148438 5.73445313 -11.69921875 5.59765625 C-10.20841797 5.33275391 -10.20841797 5.33275391 -8.6875 5.0625 C-7.70136719 4.88847656 -6.71523437 4.71445313 -5.69921875 4.53515625 C-2.91810787 4.04253153 -2.91810787 4.04253153 0 3 C0 2.01 0 1.02 0 0 Z " fill="#CB4C50" transform="translate(160,104)"/>
<path d="M0 0 C0 4.93925612 -2.17564438 8.14925495 -5.5625 11.64453125 C-8.7740508 15.43177618 -8.77582481 19.0664755 -8.8125 23.875 C-8.83763672 24.65875 -8.86277344 25.4425 -8.88867188 26.25 C-8.94709064 28.16613555 -8.97651926 30.08311793 -9 32 C-8.34 32.33 -7.68 32.66 -7 33 C-7.99 33 -8.98 33 -10 33 C-10.10890711 29.99900412 -10.18773555 27.00203622 -10.25 24 C-10.28351562 23.16082031 -10.31703125 22.32164063 -10.3515625 21.45703125 C-10.47015134 13.80805104 -8.47512616 8.70537046 -3.3125 3.0625 C-2.1678125 2.0415625 -2.1678125 2.0415625 -1 1 C-0.67 0.67 -0.34 0.34 0 0 Z " fill="#D7BC26" transform="translate(23,55)"/>
<path d="M0 0 C3.41076206 3.41076206 4.11007927 7.38936798 4.1953125 12.0859375 C4.18219489 13.51575693 4.15860452 14.94551534 4.125 16.375 C4.11597656 17.11105469 4.10695312 17.84710938 4.09765625 18.60546875 C4.07430144 20.4037888 4.03843836 22.20193911 4 24 C2.68 23.67 1.36 23.34 0 23 C0.33 22.67 0.66 22.34 1 22 C1.23427778 19.98405418 1.41336124 17.961526 1.5625 15.9375 C1.68818359 14.28041016 1.68818359 14.28041016 1.81640625 12.58984375 C1.87699219 11.73519531 1.93757812 10.88054687 2 10 C1.01 9.67 0.02 9.34 -1 9 C-0.835 8.2575 -0.67 7.515 -0.5 6.75 C0.11925696 3.80993422 0.11925696 3.80993422 0 0 Z " fill="#E2C340" transform="translate(184,64)"/>
<path d="M0 0 C1.97956441 0.14033111 3.95865141 0.2874123 5.9375 0.4375 C7.03964844 0.51871094 8.14179687 0.59992188 9.27734375 0.68359375 C12 1 12 1 13 2 C15.68544346 2.56274765 18.36253387 3.08061023 21.0625 3.5625 C21.82111328 3.70107422 22.57972656 3.83964844 23.36132812 3.98242188 C25.24024975 4.32511827 27.12004701 4.6630073 29 5 C29 5.66 29 6.32 29 7 C27.18706911 6.85962479 25.3746557 6.71255111 23.5625 6.5625 C22.04849609 6.44068359 22.04849609 6.44068359 20.50390625 6.31640625 C18 6 18 6 17 5 C13.58224401 4.34418059 10.16140762 3.75107907 6.7265625 3.19335938 C4.80562557 2.85875574 2.90059263 2.43555248 1 2 C0.67 1.34 0.34 0.68 0 0 Z " fill="#BC5261" transform="translate(83,104)"/>
<path d="M0 0 C-3.17144172 3.17144172 -7.21402016 5.22768439 -11.3125 7 C-13.50984114 8.30212808 -13.99187769 9.69572042 -15 12 C-15.66 12.66 -16.32 13.32 -17 14 C-17 12.68 -17 11.36 -17 10 C-16.34 10 -15.68 10 -15 10 C-15.33 8.68 -15.66 7.36 -16 6 C-14.02 6.495 -14.02 6.495 -12 7 C-12 6.01 -12 5.02 -12 4 C-8.77458836 -0.19303513 -4.98930509 -0.13859181 0 0 Z " fill="#45A13D" transform="translate(32,50)"/>
<path d="M0 0 C1.22589844 0.29197266 1.22589844 0.29197266 2.4765625 0.58984375 C3.41628906 0.82380859 3.41628906 0.82380859 4.375 1.0625 C4.375 1.7225 4.375 2.3825 4.375 3.0625 C5.53 3.206875 6.685 3.35125 7.875 3.5 C14.125 4.28125 14.125 4.28125 20.375 5.0625 C20.375 5.3925 20.375 5.7225 20.375 6.0625 C16.415 6.0625 12.455 6.0625 8.375 6.0625 C8.375 5.4025 8.375 4.7425 8.375 4.0625 C6.9209375 4.0934375 6.9209375 4.0934375 5.4375 4.125 C2.375 4.0625 2.375 4.0625 1.375 3.0625 C0.02752916 2.83174918 -1.32877565 2.65096937 -2.6875 2.5 C-3.986875 2.355625 -5.28625 2.21125 -6.625 2.0625 C-6.625 1.4025 -6.625 0.7425 -6.625 0.0625 C-3.99249612 -1.25375194 -2.82320944 -0.68563658 0 0 Z " fill="#6177C9" transform="translate(19.625,88.9375)"/>
<path d="M0 0 C1.32 0.99 2.64 1.98 4 3 C3.67 3.99 3.34 4.98 3 6 C2.72880617 9.5814804 2.55453706 13.16264729 2.37890625 16.75 C2 20 2 20 0 23 C0 15.41 0 7.82 0 0 Z " fill="#379F4A" transform="translate(13,46)"/>
<path d="M0 0 C0.66 0.33 1.32 0.66 2 1 C1.79141357 1.53294678 1.58282715 2.06589355 1.36791992 2.61499023 C-0.78485476 8.50246903 -1.51802714 13.82105674 -1.6875 20.0625 C-1.72166016 20.92810547 -1.75582031 21.79371094 -1.79101562 22.68554688 C-1.87240114 24.78994387 -1.93789769 26.8949457 -2 29 C-2.33 29 -2.66 29 -3 29 C-3.16783262 25.56255588 -3.33406544 22.12503622 -3.5 18.6875 C-3.57154297 17.22280273 -3.57154297 17.22280273 -3.64453125 15.72851562 C-3.68964844 14.79072266 -3.73476562 13.85292969 -3.78125 12.88671875 C-3.82314453 12.02264404 -3.86503906 11.15856934 -3.90820312 10.26831055 C-3.97922401 8.51337696 -4 6.75637008 -4 5 C-2.68 4.34 -1.36 3.68 0 3 C0 2.01 0 1.02 0 0 Z " fill="#E1FEEF" transform="translate(14,40)"/>
<path d="M0 0 C6.95622666 -0.90733391 11.53304004 1.81435878 17 6 C18.92098219 8.00262393 19.8054856 9.44032629 21 12 C20.67 12.99 20.34 13.98 20 15 C19.57589844 14.46890625 19.15179688 13.9378125 18.71484375 13.390625 C13.25102276 6.81002302 8.32439996 3.43640974 0 1 C0 0.67 0 0.34 0 0 Z " fill="#4BA034" transform="translate(164,49)"/>
<path d="M0 0 C4.54805635 -0.17835515 7.8794254 0.00214565 12 2 C8.77484237 3.73662334 5.48670834 4.8905928 2 6 C0 3 0 3 0 0 Z " fill="#EBF8EF" transform="translate(24,24)"/>
<path d="M0 0 C6.30215855 -0.23341328 11.86486456 0.60522267 18 2 C18.87011719 2.19078125 19.74023438 2.3815625 20.63671875 2.578125 C22.7594574 3.04466097 24.87997481 3.52128463 27 4 C27 4.33 27 4.66 27 5 C24.27001324 4.88562349 21.5415418 4.75888594 18.8125 4.625 C18.04357422 4.5940625 17.27464844 4.563125 16.48242188 4.53125 C12.23315523 4.31240365 8.90410322 3.83722505 5 2 C3.34080104 1.63128912 1.6752357 1.28718326 0 1 C0 0.67 0 0.34 0 0 Z " fill="#7F6CB0" transform="translate(101,110)"/>
<path d="M0 0 C8.39843797 -0.31105326 16.10044832 1.08963885 24 4 C24 4.33 24 4.66 24 5 C21.36 5 18.72 5 16 5 C16 4.34 16 3.68 16 3 C14.845 3.04125 13.69 3.0825 12.5 3.125 C8.05518699 3.14087433 4.26275869 2.21793105 0 1 C0 0.67 0 0.34 0 0 Z " fill="#AF5669" transform="translate(24,91)"/>
<path d="M0 0 C5.93002267 -0.37851209 10.47239641 0.89424625 16 3 C12.85069107 4.04976964 10.61185544 4.10131595 7.3125 4.0625 C6.31863281 4.05347656 5.32476562 4.04445313 4.30078125 4.03515625 C3.16189453 4.01775391 3.16189453 4.01775391 2 4 C1.34 2.68 0.68 1.36 0 0 Z " fill="#4B82E4" transform="translate(51,99)"/>
<path d="M0 0 C0.33 0 0.66 0 1 0 C1.89604368 6.04829486 2.11269443 11.8894576 2 18 C1.01 18.33 0.02 18.66 -1 19 C-0.67 12.73 -0.34 6.46 0 0 Z " fill="#3681E6" transform="translate(14,136)"/>
<path d="M0 0 C0.99 0 1.98 0 3 0 C2.67 1.98 2.34 3.96 2 6 C1.67 5.01 1.34 4.02 1 3 C0.34 3 -0.32 3 -1 3 C-0.67 3.99 -0.34 4.98 0 6 C-3.51187196 8.40814077 -5.72656908 9.36629408 -10 9 C-7.94766315 6.7522025 -6.99332739 5.9977758 -4 5 C-3.34 4.01 -2.68 3.02 -2 2 C-1.34 2 -0.68 2 0 2 C0 1.34 0 0.68 0 0 Z " fill="#4F80E6" transform="translate(183,90)"/>
<path d="M0 0 C-2.59692816 3.89539223 -4.83425768 4.91712884 -9 7 C-9.66 6.67 -10.32 6.34 -11 6 C-7.6959847 0.24856597 -7.6959847 0.24856597 -4.375 -0.9375 C-2 -1 -2 -1 0 0 Z " fill="#A75C7B" transform="translate(181,93)"/>
<path d="M0 0 C2.64 0 5.28 0 8 0 C8 0.66 8 1.32 8 2 C10.97 2 13.94 2 17 2 C17 2.99 17 3.98 17 5 C15.68 5 14.36 5 13 5 C13 4.34 13 3.68 13 3 C10.69 3 8.38 3 6 3 C6 2.34 6 1.68 6 1 C4.02 1 2.04 1 0 1 C0 0.67 0 0.34 0 0 Z " fill="#C4505D" transform="translate(62,99)"/>
<path d="M0 0 C5.445 1.485 5.445 1.485 11 3 C11 3.33 11 3.66 11 4 C4.565 4.495 4.565 4.495 -2 5 C-1.34 4.67 -0.68 4.34 0 4 C0 2.68 0 1.36 0 0 Z " fill="#E1F3F7" transform="translate(26,171)"/>
<path d="M0 0 C2 0 2 0 3.625 1.5 C4.07875 1.995 4.5325 2.49 5 3 C5.33 2.01 5.66 1.02 6 0 C7 4.75 7 4.75 7 7 C7.99 7.33 8.98 7.66 10 8 C5.17965738 7.58682778 3.09007389 5.61980085 0 2 C0 1.34 0 0.68 0 0 Z " fill="#2F75D5" transform="translate(17,161)"/>
<path d="M0 0 C2.31 0 4.62 0 7 0 C6.01 0.66 5.02 1.32 4 2 C2.42997218 3.19853592 0.86799197 4.40765846 -0.6875 5.625 C-1.89986328 6.57246094 -1.89986328 6.57246094 -3.13671875 7.5390625 C-3.75160156 8.02117187 -4.36648437 8.50328125 -5 9 C-5 6 -5 6 -3.625 4.3125 C-2 3 -2 3 0 3 C0 2.01 0 1.02 0 0 Z " fill="#FCA81D" transform="translate(24,74)"/>
<path d="M0 0 C1.875 1.5 1.875 1.5 3 3 C-4.42857143 3.14285714 -4.42857143 3.14285714 -8 2 C-8 2.66 -8 3.32 -8 4 C-9.32 3.67 -10.64 3.34 -12 3 C-7.82561234 0.61463562 -4.83415572 -0.6445541 0 0 Z " fill="#DEC21E" transform="translate(36,51)"/>
<path d="M0 0 C3 0 3 0 4.6875 1.375 C6 3 6 3 6 5 C5.01 5 4.02 5 3 5 C3 5.66 3 6.32 3 7 C2.34 7 1.68 7 1 7 C0.67 4.69 0.34 2.38 0 0 Z " fill="#CC554B" transform="translate(180,85)"/>
<path d="M0 0 C1.32 1.32 2.64 2.64 4 4 C1.69 4.33 -0.62 4.66 -3 5 C-2.625 3.0625 -2.625 3.0625 -2 1 C-1.34 0.67 -0.68 0.34 0 0 Z " fill="#E7F4F6" transform="translate(20,166)"/>
<path d="M0 0 C3.96 0.33 7.92 0.66 12 1 C12.33 1.99 12.66 2.98 13 4 C8.51474352 3.343621 4.33085971 2.29925791 0 1 C0 0.67 0 0.34 0 0 Z " fill="#B05772" transform="translate(83,104)"/>
<path d="M0 0 C5.28 0 10.56 0 16 0 C15.01 0.495 15.01 0.495 14 1 C14 1.66 14 2.32 14 3 C12.22844346 2.88570603 10.45773771 2.75816963 8.6875 2.625 C7.70136719 2.55539063 6.71523438 2.48578125 5.69921875 2.4140625 C3 2 3 2 0 0 Z " fill="#CC4D4E" transform="translate(48,96)"/>
<path d="M0 0 C0.66 0.33 1.32 0.66 2 1 C1.01 3.31 0.02 5.62 -1 8 C-2.32 8 -3.64 8 -5 8 C-4.1875 6.0625 -4.1875 6.0625 -3 4 C-2.01 3.67 -1.02 3.34 0 3 C0 2.01 0 1.02 0 0 Z " fill="#E8F9E9" transform="translate(14,40)"/>
<path d="M0 0 C1.33333333 0.66666667 2.66666667 1.33333333 4 2 C3.34 3.32 2.68 4.64 2 6 C1.01 5.67 0.02 5.34 -1 5 C-0.67 4.34 -0.34 3.68 0 3 C-0.99 2.67 -1.98 2.34 -3 2 C-2.01 1.34 -1.02 0.68 0 0 Z " fill="#4C7FE7" transform="translate(162,106)"/>
<path d="M0 0 C-3.20336822 2.83374881 -5.78087253 3.5205537 -10 4 C-10 3.34 -10 2.68 -10 2 C-6.5980513 -0.09350689 -3.94727588 -0.17942163 0 0 Z " fill="#4B82E9" transform="translate(122,114)"/>
<path d="M0 0 C1.22589844 0.29197266 1.22589844 0.29197266 2.4765625 0.58984375 C3.41628906 0.82380859 3.41628906 0.82380859 4.375 1.0625 C4.375 1.3925 4.375 1.7225 4.375 2.0625 C0.745 2.0625 -2.885 2.0625 -6.625 2.0625 C-6.625 1.4025 -6.625 0.7425 -6.625 0.0625 C-3.99249612 -1.25375194 -2.82320944 -0.68563658 0 0 Z " fill="#7A6B9B" transform="translate(19.625,88.9375)"/>
<path d="M0 0 C1.65 0 3.3 0 5 0 C2.22719294 3.08089673 -0.06326356 4.68775452 -4 6 C-3.34 5.01 -2.68 4.02 -2 3 C-1.34 3 -0.68 3 0 3 C0 2.01 0 1.02 0 0 Z " fill="#AA5A79" transform="translate(160,104)"/>
</svg>
